<?xml version="1.0" encoding="UTF-8"?>
<!DOCTYPE svg PUBLIC "-//W3C//DTD SVG 1.1//EN" "http://www.w3.org/Graphics/SVG/1.1/DTD/svg11.dtd">
<!-- Creator: CorelDRAW X7 -->
<svg xmlns="http://www.w3.org/2000/svg" xml:space="preserve" width="279.4mm" height="431.8mm" version="1.1" style="shape-rendering:geometricPrecision; text-rendering:geometricPrecision; image-rendering:optimizeQuality; fill-rule:evenodd; clip-rule:evenodd"
viewBox="0 0 27940 43180"
 xmlns:xlink="http://www.w3.org/1999/xlink">
 <defs>
  <style type="text/css">
   <![CDATA[
    .str0 {stroke:#0098DA;stroke-width:70.55}
    .str2 {stroke:#00778E;stroke-width:70.55}
    .str3 {stroke:#00778E;stroke-width:52.91}
    .str1 {stroke:#0098DA;stroke-width:20}
    .str4 {stroke:#006E5B;stroke-width:20}
    .str7 {stroke:#44883C;stroke-width:20}
    .str5 {stroke:#7EC845;stroke-width:20}
    .str6 {stroke:#45BE76;stroke-width:20}
    .fil8 {fill:none}
    .fil0 {fill:white}
    .fil12 {fill:#006E5B}
    .fil7 {fill:#00778E}
    .fil15 {fill:#44883C}
    .fil13 {fill:#7EC845}
    .fil14 {fill:#45BE76}
    .fil2 {fill:#009EB0}
    .fil6 {fill:#008599}
    .fil3 {fill:#00678A}
    .fil10 {fill:#84C4CC}
    .fil5 {fill:#53C8D4}
    .fil9 {fill:#43BACA}
    .fil11 {fill:#2EBCCC}
    .fil4 {fill:#00A9C1}
    .fil17 {fill:#009AAD}
    .fil1 {fill:#00778E}
    .fil16 {fill:#006E5B;fill-rule:nonzero}
   ]]>
  </style>
 </defs>
 <g id="Capa_x0020_1">
  <metadata id="CorelCorpID_0Corel-Layer"/>
  <g id="_1856474157760">
   <path class="fil0 str0" d="M11580 19732c-176,403 -265,604 -265,604 401,361 601,541 601,541 320,0 479,0 479,0 285,-244 428,-367 428,-367 34,-305 51,-457 51,-457 -290,-338 -453,-490 -489,-458 -536,91 -805,137 -805,137z"/>
   <path class="fil1" d="M10862 21568c316,-763 474,-1145 474,-1145 346,318 519,477 519,477 -662,445 -993,668 -993,668z"/>
   <path class="fil2" d="M11894 20911c-674,447 -1011,671 -1011,671 803,-186 1204,-280 1204,-280 206,-264 308,-396 308,-396 -334,3 -501,5 -501,5z"/>
   <path class="fil3" d="M12136 21316c-814,185 -1220,277 -1220,277 441,96 662,144 662,144 669,-247 1003,-370 1003,-370 -73,-313 -109,-470 -109,-470 -224,280 -336,419 -336,419z"/>
   <path class="fil4" d="M10819 21541c-66,-960 -99,-1440 -99,-1440 499,-174 748,-261 748,-261 -433,1134 -649,1701 -649,1701z"/>
   <path class="fil1" d="M10763 20046c484,-515 726,-772 726,-772 40,63 62,92 66,87 -78,299 -117,449 -117,449 -450,157 -675,236 -675,236z"/>
   <path class="fil5" d="M13227 19182c-363,-69 -545,-103 -545,-103 -117,296 -176,444 -176,444 277,338 415,508 415,508 204,-566 306,-849 306,-849z"/>
   <path class="fil6" d="M12870 20522c48,-307 72,-460 72,-460 332,209 499,313 499,313 -41,211 -61,316 -61,316 -340,-113 -510,-169 -510,-169z"/>
   <path class="fil4" d="M12630 21337c-82,-316 -123,-474 -123,-474 230,-200 344,-300 344,-300 345,121 517,181 517,181 -17,185 -25,277 -25,277 -506,217 -743,322 -713,316z"/>
   <path class="fil2" d="M13857 19817c-390,-418 -586,-627 -586,-627 -190,555 -285,833 -285,833 326,207 489,311 489,311 255,-345 382,-517 382,-517z"/>
   <path class="fil7 str1" d="M12308 20010c60,0 109,48 109,106 0,58 -49,105 -109,105 -61,0 -110,-47 -110,-105 0,-58 49,-106 110,-106z"/>
   <path class="fil8 str2" d="M11886 19831c211,141 316,211 316,211"/>
   <path class="fil8 str3" d="M12418 20200c109,120 163,180 163,180"/>
   <path class="fil2" d="M15738 19758c-65,77 -98,115 -98,115 0,0 259,33 776,99 0,0 186,310 557,928 0,0 150,-428 452,-1285 0,0 -218,-260 -654,-780 0,0 -344,307 -1033,923z"/>
   <path class="fil3" d="M17027 21149c-126,271 -190,406 -190,406 0,0 -146,-504 -440,-1511 420,736 630,1105 630,1105z"/>
   <path class="fil6" d="M15948 23056c431,-1458 647,-2187 647,-2187 180,674 269,1011 269,1011 -611,784 -916,1176 -916,1176z"/>
   <path class="fil9" d="M14953 22369c723,55 1085,82 1085,82 -107,385 -161,577 -161,577 -616,-439 -924,-659 -924,-659z"/>
   <path class="fil3" d="M14976 22300c545,51 817,76 817,76 -596,-224 -893,-337 -893,-337 50,174 76,261 76,261z"/>
   <path class="fil10" d="M15171 21566c-143,283 -214,425 -214,425 0,0 114,48 344,145 -87,-380 -130,-570 -130,-570z"/>
   <path class="fil4" d="M15255 21566c41,169 61,254 61,254 413,-138 619,-206 619,-206 -454,-32 -680,-48 -680,-48z"/>
   <path class="fil11" d="M16080 22002c-229,-181 -344,-272 -344,-272 219,-75 329,-113 329,-113 10,257 15,385 15,385z"/>
   <path class="fil3" d="M16038 22043c-66,142 -99,213 -99,213 0,0 -21,-123 -61,-368 106,103 160,155 160,155z"/>
   <path class="fil12 str4" d="M16945 20756c523,-131 785,-197 785,-197 0,0 -228,9 -683,26 0,0 -34,57 -102,171z"/>
   <path class="fil13 str5" d="M17880 20570c4,104 6,156 6,156 0,0 -249,7 -747,21 494,-118 741,-177 741,-177z"/>
   <path class="fil14 str6" d="M18726 20547c-529,117 -794,176 -794,176 0,0 -1,-51 -3,-153 531,-16 797,-23 797,-23z"/>
   <path class="fil14 str6" d="M15475 20585c587,102 880,153 880,153 0,0 -35,-58 -105,-174 -516,14 -775,21 -775,21z"/>
   <path class="fil13 str5" d="M15281 20741c663,8 994,13 994,13 -691,-113 -1037,-169 -1037,-169 29,104 43,156 43,156z"/>
   <path class="fil12 str4" d="M14365 20596c587,102 880,153 880,153 0,0 -35,-58 -105,-174 -516,14 -775,21 -775,21z"/>
   <path class="fil14 str6" d="M14162 20751c662,9 994,13 994,13 -691,-112 -1037,-168 -1037,-168 29,104 43,155 43,155z"/>
   <path class="fil13 str5" d="M13714 20621c268,82 402,123 402,123 0,0 -16,-46 -48,-139 -236,11 -354,16 -354,16z"/>
   <path class="fil15 str7" d="M13616 20769c303,7 454,10 454,10 -315,-90 -473,-134 -473,-134 13,82 19,124 19,124z"/>
   <path class="fil8 str3" d="M12217 20226c-197,261 -295,392 -295,392"/>
   <path class="fil16" d="M14736 19978l-44 87c-46,-12 -85,-19 -118,-23 -26,-3 -67,-4 -123,-4l0 302c0,79 10,140 30,181l-199 0c21,-37 32,-99 32,-184l0 -299c-66,2 -114,5 -146,7 -52,5 -99,11 -141,20l49 -87 660 0zm639 0l-69 87c-60,-18 -125,-28 -193,-28 -10,0 -31,1 -66,1l0 176 297 0 -82 87c-40,-10 -75,-18 -104,-21 -23,-3 -60,-5 -111,-6l0 92c0,59 11,110 32,155l-199 0c20,-46 30,-100 30,-161l0 -233c0,-59 -10,-109 -30,-149l495 0zm1022 543l-217 0c-5,-28 -16,-57 -34,-86 -6,-10 -26,-37 -61,-83l-323 0c-26,42 -43,70 -49,83 -17,32 -26,60 -27,86l-222 0c45,-30 102,-90 173,-180l294 -370 302 383c50,65 105,121 164,167zm-362 -236l-111 -162 -114 162 225 0z"/>
   <path class="fil5" d="M12077 18805c-372,292 -558,437 -558,437 44,60 67,90 67,90 543,103 814,155 814,155 -215,-455 -323,-682 -323,-682z"/>
   <path class="fil1" d="M12472 19499c-241,-467 -362,-701 -362,-701 358,170 538,254 538,254 -118,298 -176,447 -176,447z"/>
   <path class="fil17" d="M13209 19124c-362,-73 -542,-109 -542,-109 463,-405 695,-607 695,-607 -102,478 -153,716 -153,716z"/>
   <path class="fil4" d="M12397 19559c-544,-131 -815,-197 -815,-197 -49,232 -73,347 -73,347 592,-100 888,-150 888,-150z"/>
   <path class="fil1" d="M15520 19762c-1015,82 -1523,124 -1523,124 0,0 -137,-148 -412,-444 163,-425 244,-637 244,-637 1119,654 1683,973 1691,957z"/>
   <path class="fil4" d="M15576 19744c-1107,-647 -1660,-971 -1660,-971 799,-270 1204,-398 1217,-384 296,903 443,1355 443,1355z"/>
   <path class="fil5" d="M15663 19725c-258,-903 -387,-1355 -387,-1355 563,-27 845,-41 845,-41 394,302 591,453 591,453 -699,629 -1049,943 -1049,943z"/>
  </g>
 </g>
</svg>
