<?xml version="1.0" encoding="UTF-8"?>
<!DOCTYPE svg PUBLIC "-//W3C//DTD SVG 1.1//EN" "http://www.w3.org/Graphics/SVG/1.1/DTD/svg11.dtd">
<!-- Creator: CorelDRAW X7 -->
<svg xmlns="http://www.w3.org/2000/svg" xml:space="preserve" width="279.4mm" height="180mm" version="1.1" style="shape-rendering:geometricPrecision; text-rendering:geometricPrecision; image-rendering:optimizeQuality; fill-rule:evenodd; clip-rule:evenodd"
viewBox="0 0 27940 18000"
 xmlns:xlink="http://www.w3.org/1999/xlink">
 <defs>
  <style type="text/css">
   <![CDATA[
    .str0 {stroke:#0098DA;stroke-width:70.55}
    .str2 {stroke:#00778E;stroke-width:70.55}
    .str3 {stroke:#00778E;stroke-width:52.91}
    .str1 {stroke:#0098DA;stroke-width:20}
    .str4 {stroke:#006E5B;stroke-width:20}
    .str7 {stroke:#44883C;stroke-width:20}
    .str5 {stroke:#7EC845;stroke-width:20}
    .str6 {stroke:#45BE76;stroke-width:20}
    .fil8 {fill:none}
    .fil0 {fill:white}
    .fil2 {fill:#009EB0}
    .fil6 {fill:#008599}
    .fil3 {fill:#00678A}
    .fil10 {fill:#84C4CC}
    .fil5 {fill:#53C8D4}
    .fil9 {fill:#43BACA}
    .fil11 {fill:#2EBCCC}
    .fil4 {fill:#00A9C1}
    .fil17 {fill:#009AAD}
    .fil1 {fill:#00778E}
    .fil12 {fill:#006E5B}
    .fil7 {fill:#00778E}
    .fil15 {fill:#44883C}
    .fil13 {fill:#7EC845}
    .fil14 {fill:#45BE76}
    .fil16 {fill:#006E5B;fill-rule:nonzero}
   ]]>
  </style>
 </defs>
 <g id="Capa_x0020_1">
  <metadata id="CorelCorpID_0Corel-Layer"/>
  <g id="_2286547392224">
   <path class="fil0 str0" d="M3831 5701c-577,1318 -866,1976 -866,1976 1310,1178 1965,1766 1965,1766 1044,0 1566,0 1566,0 932,-798 1398,-1197 1398,-1197 111,-998 167,-1497 167,-1497 -947,-1103 -1480,-1602 -1599,-1497 -1754,300 -2631,449 -2631,449z"/>
   <path class="fil1" d="M1483 11703c1033,-2494 1549,-3742 1549,-3742 1132,1038 1699,1557 1699,1557 -2165,1457 -3248,2185 -3248,2185z"/>
   <path class="fil2" d="M4855 9556c-2203,1461 -3305,2192 -3305,2192 2625,-608 3938,-913 3938,-913 672,-863 1008,-1294 1008,-1294 -1094,10 -1641,15 -1641,15z"/>
   <path class="fil3" d="M5647 10880c-2659,604 -3989,906 -3989,906 1444,314 2165,471 2165,471 2187,-808 3281,-1212 3281,-1212 -239,-1023 -358,-1534 -358,-1534 -733,913 -1099,1369 -1099,1369z"/>
   <path class="fil4" d="M1342 11614c-216,-3139 -325,-4708 -325,-4708 1632,-569 2448,-853 2448,-853 -1415,3707 -2123,5561 -2123,5561z"/>
   <path class="fil1" d="M1159 6727c1582,-1682 2373,-2522 2373,-2522 130,203 202,298 216,284 -255,978 -383,1467 -383,1467 -1471,514 -2206,771 -2206,771z"/>
   <path class="fil5" d="M9215 3902c-1188,-225 -1782,-337 -1782,-337 -383,968 -575,1452 -575,1452 905,1107 1357,1661 1357,1661 667,-1851 1000,-2776 1000,-2776z"/>
   <path class="fil6" d="M8049 8284c155,-1003 233,-1505 233,-1505 1088,684 1632,1026 1632,1026 -133,688 -200,1032 -200,1032 -1110,-369 -1665,-553 -1665,-553z"/>
   <path class="fil4" d="M7262 10948c-266,-1033 -399,-1549 -399,-1549 749,-654 1124,-981 1124,-981 1126,394 1690,592 1690,592 -56,603 -83,905 -83,905 -1653,708 -2431,1052 -2332,1033z"/>
   <path class="fil2" d="M11275 5978c-1276,-1367 -1915,-2050 -1915,-2050 -621,1816 -932,2724 -932,2724 1066,679 1598,1018 1598,1018 833,-1128 1249,-1692 1249,-1692z"/>
   <path class="fil7 str1" d="M6209 6611c198,0 358,154 358,344 0,190 -160,345 -358,345 -198,0 -358,-155 -358,-345 0,-190 160,-344 358,-344z"/>
   <path class="fil8 str2" d="M4831 6024c688,461 1033,692 1033,692"/>
   <path class="fil8 str3" d="M6571 7232c356,392 533,588 533,588"/>
   <path class="fil2" d="M17424 5785c-213,252 -319,377 -319,377 0,0 845,108 2537,324 0,0 606,1011 1819,3035 0,0 493,-1401 1478,-4203 0,0 -712,-850 -2138,-2550 0,0 -1125,1005 -3377,3017z"/>
   <path class="fil3" d="M21638 10332c-413,886 -619,1329 -619,1329 0,0 -480,-1646 -1439,-4939 1372,2407 2058,3610 2058,3610z"/>
   <path class="fil6" d="M18109 16568c1413,-4766 2119,-7149 2119,-7149 586,2203 879,3305 879,3305 -1998,2563 -2998,3844 -2998,3844z"/>
   <path class="fil9" d="M14858 14322c2365,180 3547,270 3547,270 -350,1257 -525,1886 -525,1886 -2015,-1437 -3022,-2156 -3022,-2156z"/>
   <path class="fil3" d="M14933 14098c1782,165 2673,247 2673,247 -1949,-734 -2923,-1100 -2923,-1100 167,568 250,853 250,853z"/>
   <path class="fil10" d="M15570 11696c-466,928 -699,1392 -699,1392 0,0 374,157 1124,471 -284,-1242 -425,-1863 -425,-1863z"/>
   <path class="fil4" d="M15845 11696c133,553 200,830 200,830 1348,-449 2023,-673 2023,-673 -1482,-105 -2223,-157 -2223,-157z"/>
   <path class="fil11" d="M18542 13121c-749,-591 -1124,-886 -1124,-886 716,-247 1075,-371 1075,-371 33,838 49,1257 49,1257z"/>
   <path class="fil3" d="M18405 13256c-216,464 -325,696 -325,696 0,0 -66,-400 -199,-1201 349,337 524,505 524,505z"/>
   <path class="fil12 str4" d="M21372 9049c1709,-429 2564,-644 2564,-644 0,0 -744,28 -2233,84 0,0 -110,186 -331,560z"/>
   <path class="fil13 str5" d="M24428 8442c14,340 20,510 20,510 0,0 -814,22 -2443,66 1615,-384 2423,-576 2423,-576z"/>
   <path class="fil14 str6" d="M27193 8364c-1730,384 -2595,576 -2595,576 0,0 -3,-167 -10,-501 1737,-50 2605,-75 2605,-75z"/>
   <path class="fil14 str6" d="M16565 8489c1918,334 2876,501 2876,501 0,0 -114,-189 -342,-568 -1689,45 -2534,67 -2534,67z"/>
   <path class="fil13 str5" d="M15932 8999c2165,28 3248,42 3248,42 -2259,-368 -3389,-552 -3389,-552 94,340 141,510 141,510z"/>
   <path class="fil12 str4" d="M12936 8524c1917,335 2876,502 2876,502 0,0 -114,-190 -342,-569 -1689,45 -2534,67 -2534,67z"/>
   <path class="fil14 str6" d="M12272 9034c2166,28 3248,42 3248,42 -2259,-368 -3389,-552 -3389,-552 94,340 141,510 141,510z"/>
   <path class="fil13 str5" d="M10808 8609c876,266 1314,400 1314,400 0,0 -53,-151 -157,-454 -771,36 -1157,54 -1157,54z"/>
   <path class="fil15 str7" d="M10488 9091c989,22 1484,33 1484,33 -1032,-293 -1548,-439 -1548,-439 42,271 64,406 64,406z"/>
   <path class="fil8 str3" d="M5912 7316c-643,854 -965,1281 -965,1281"/>
   <path class="fil16" d="M14147 6507l-144 284c-149,-40 -277,-65 -384,-76 -85,-9 -219,-14 -403,-15l0 990c0,257 33,455 100,592l-651 0c68,-124 102,-324 102,-603l0 -979c-213,8 -371,17 -474,25 -172,14 -326,36 -461,66l159 -284 2156 0zm2092 0l-227 284c-197,-62 -408,-92 -632,-92 -30,0 -101,1 -213,4l0 575 969 0 -269 284c-130,-35 -243,-59 -339,-71 -75,-9 -195,-16 -361,-19l0 301c0,192 34,362 102,509l-651 0c67,-152 100,-328 100,-528l0 -762c0,-193 -33,-355 -100,-485l1621 0zm3341 1775l-711 0c-16,-94 -52,-189 -111,-282 -19,-32 -86,-123 -198,-273l-1056 0c-88,140 -142,231 -162,272 -54,103 -84,198 -88,283l-724 0c145,-101 332,-297 563,-589l962 -1212 987 1252c165,213 344,396 538,549zm-1185 -774l-363 -528 -371 528 734 0z"/>
   <path class="fil5" d="M5455 2670c-1215,953 -1823,1430 -1823,1430 144,194 216,292 216,292 1777,339 2665,509 2665,509 -705,-1487 -1058,-2231 -1058,-2231z"/>
   <path class="fil1" d="M6746 4938c-788,-1527 -1182,-2290 -1182,-2290 1171,554 1756,831 1756,831 -383,973 -574,1459 -574,1459z"/>
   <path class="fil17" d="M9156 3714c-1182,-239 -1773,-359 -1773,-359 1515,-1322 2273,-1983 2273,-1983 -333,1562 -500,2342 -500,2342z"/>
   <path class="fil4" d="M6500 5136c-1776,-429 -2664,-643 -2664,-643 -158,756 -237,1134 -237,1134 1934,-327 2901,-491 2901,-491z"/>
   <path class="fil1" d="M16713 5799c-3320,269 -4980,404 -4980,404 0,0 -449,-484 -1348,-1452 532,-1387 799,-2080 799,-2080 3658,2138 5500,3181 5529,3128z"/>
   <path class="fil4" d="M16896 5739c-3619,-2115 -5429,-3173 -5429,-3173 2611,-884 3938,-1303 3980,-1257 966,2953 1449,4430 1449,4430z"/>
   <path class="fil5" d="M17179 5679c-844,-2953 -1266,-4430 -1266,-4430 1843,-90 2764,-135 2764,-135 1288,988 1932,1482 1932,1482 -2287,2055 -3430,3083 -3430,3083z"/>
  </g>
 </g>
</svg>
